<svg version="1.2" xmlns="http://www.w3.org/2000/svg" viewBox="0 0 1552 618" width="1552" height="618">
	<title>MT_BIG</title>
	<style>
		.s0 { fill: #e73f1d } 
	</style>
	<path class="s0" d="m1494 485.8c-16.1 0-32.8-5.9-42.2-10.7-191.5-99.7-408.7-158.6-619.7-158.6-26.4 0-45.8 1.1-70.6 3.5 39.8 63.3 108.4 155.1 155.4 211.6 12.1 14.5 15.8 23.3 15.8 37.4 0 24.6-25.9 48.4-53.4 48.4-18.4 0-29.4-7.1-46.4-27.1-57.1-67.1-142.9-185.9-183.7-253.4-200.3 35.4-423.4 153.6-555.3 258-15 12.1-25.7 17-40.7 17-28.1 0-52.5-24.2-52.5-51.7 0-15.9 6.1-27.8 26.6-45.1 201.3-167.4 513.9-299.6 779.3-299.6 105.3 0 207 14.6 305.1 38.5 59.6 14.7 148.1 44.2 223.3 77-197.4-119.2-444.9-228.1-601.4-228.1-39.8 0-64.2 13.4-64.2 40.3 0 15.8 8.8 36.9 22 58.2-31.3 3.3-72.6 9.5-103.8 17.9-16.3-29.9-27.7-61.8-27.7-96.1 0-76.1 49.7-123 149.9-123 226.7 0 607.9 211.2 798.2 365.5 21.6 17.6 43.1 39.6 43.1 65.2 0 25.5-22 54.9-57.1 54.9z"/>
</svg>