<svg version="1.2" xmlns="http://www.w3.org/2000/svg" viewBox="0 0 1548 1419" width="1548" height="1419"><style>.a{fill:#ff2e17}</style><path fill-rule="evenodd" class="a" d="m1539 1233.8c-35.2 118.6-127.5 173.6-252.7 180.1-35.4 4.6-26.6 2.3-54.9 4.6h-914.5c-61.5-2.3-26.3-2.3-52.7-2.3-175.9 0-263.7-127.5-263.7-241.6 0-39.7 6.6-59.5 19.9-94.7 8.8-19.8 4.2-8.7 30.6-59.2l421.9-753.7 61.8-109.9c52.7-90.1 101.1-127.5 164.8-147.3 74.5-19.9 145-4.3 195.4 24.3 39.7 21.8 74.8 65.7 98.9 109.6 8.8 13.4 8.8 11.1 39.6 68.3l465.9 813c37.4 66 61.7 125.2 39.7 208.8zm-433.1 70.2c-35.1-28.3-46.1-48.1-63.7-76.8h-791c-13.3 0-30.9-4.5-41.9-15.3-24.1-22-24.1-59.4-2.3-81.2 11.1-11.1 30.9-17.9 44.2-17.9h727.3l-46.2-79h-672.3c-44.2 2.2-79.3 15.6-105.7 41.9-54.9 52.7-54.9 138.2 4.6 193.2 37.3 30.9 65.7 33.1 107.6 35.1zm-876.8-369.1c28.6-11 56.9-13 81.2-15.3h13.1l389.1-687.8c15.3-24.3 26.3-33.1 39.7-37.3 37.1-11.1 65.7 8.7 74.4 39.3 2.3 15.6 0 33.2-10.7 55l-362.8 633.1h90l336.5-591.2c26.3-48.4 28.3-85.8 19.5-116.4-19.5-72.5-94.3-116.7-171.3-94.6-30.6 11-57.2 30.8-85.5 79zm446-10.8h197.7l-101.1-173.6zm729.8 166.8l-424.2-745c-6.5 39.7-22.1 70.6-33.1 96.9l391.3 685.5c15.3 26.4 17.6 42 13.1 55-8.8 32.8-43.9 50.7-72.5 41.6-13.1-4.2-24.1-15.3-41.7-43.9l-356-624-46.1 79 333.9 582.4c22.1 37.4 46.2 66 85.8 79 74.8 24.4 153.8-21.8 171.3-96.6 11.1-46.1-2.2-79-21.8-109.9z"/></svg>