<svg width="2133" height="1092" viewBox="0 0 2133 1092" fill="none" xmlns="http://www.w3.org/2000/svg">
<path fill-rule="evenodd" clip-rule="evenodd" d="M0.167908 0.231934H2132.51V1091.52H0.167908V0.231934Z" fill="#5A7860"/>
<path fill-rule="evenodd" clip-rule="evenodd" d="M56.3659 48.9336H2082.44V1033.95H56.3659V48.9336Z" fill="white"/>
<path fill-rule="evenodd" clip-rule="evenodd" d="M74.1604 64.3804H2059.48V1013.81H74.1604V64.3804Z" fill="#5A7860"/>
<path fill-rule="evenodd" clip-rule="evenodd" d="M333.348 410.932C383.943 410.932 418.56 464.796 418.56 543.509C418.56 621.937 384.475 672.805 331.96 672.805C279.589 672.805 243.87 619.758 243.87 542.044C243.87 461.021 278.084 410.932 333.348 410.932ZM336.591 395.148C253.493 395.148 195.557 458.051 195.557 548.295C195.557 630.783 250.043 689.25 326.941 689.276C408.054 689.276 466.924 626.607 466.924 540.202C466.937 452.799 415.123 395.148 336.591 395.148ZM1832.46 690.392C1888.75 690.392 1930.26 641.937 1930.26 576.193C1930.26 518.802 1894.04 477.778 1843.38 477.778C1786.96 477.778 1745.3 525.987 1745.3 591.212C1745.3 649.317 1781.4 690.392 1832.46 690.392ZM1782.54 582.406C1782.54 559.89 1784.61 544.651 1789.42 531.875C1798.49 507.765 1816.56 493.083 1837.18 493.083C1849.97 493.083 1862.21 498.712 1871.7 509.01C1886.35 524.898 1892.65 547.789 1892.65 584.999C1892.65 642.002 1872.74 674.802 1838.19 674.802C1804.24 674.789 1782.54 638.772 1782.54 582.406ZM1713.5 401.737C1717.2 402.878 1721.18 405.148 1724.9 410.31C1730 417.664 1731.59 426.872 1729.66 436.029C1729.05 438.902 1728.04 441.675 1726.65 444.265C1718.17 457.987 1707.68 459.478 1697.15 452.578C1695.1 451.035 1693.32 449.179 1691.85 447.079C1686.73 439.686 1685.16 430.517 1687.09 421.334C1687.73 418.467 1688.74 415.698 1690.1 413.098C1696.96 401.581 1705.25 399.649 1713.5 401.737ZM1725.64 666.631C1730.61 667.37 1735.6 668.097 1738.82 668.486C1744.51 669.549 1745.28 667.578 1749.02 670.107C1749.66 673.246 1749.35 676.566 1749.23 680.638C1748.27 684.114 1746.68 682.973 1744.64 683.297C1718.01 683.401 1691.67 683.777 1664.77 683.57C1662.94 683.245 1662.01 681.041 1661.98 679.212C1662.04 676.553 1661.88 674.05 1662.11 671.21C1663.46 668.019 1666.34 669.134 1669.08 668.927C1672.06 668.927 1675.06 668.745 1677.34 668.343C1681.22 667.604 1683.4 666.67 1685.98 664.037C1687.1 662.779 1688.03 661.352 1688.71 659.809C1689.52 658.006 1690.28 655.762 1690.95 652.533C1691.63 649.342 1692.27 645.218 1692.72 637.177C1693.15 629.149 1693.36 617.242 1693.36 605.336V536.687C1693.36 529.943 1693.25 523.199 1693.09 518.711C1693.02 515.842 1692.79 512.98 1692.4 510.138C1691.68 506.584 1691.46 504.379 1688.88 501.682C1685.82 499.308 1683.84 499.529 1680.32 499.256C1676.63 499.127 1674.37 499.269 1672.72 499.256C1671.66 499.256 1669.91 499.217 1668.77 499.101C1664.92 498.867 1664.99 496.585 1664.94 494.445C1665.02 491.76 1664.71 489.542 1665.17 486.403C1666.37 484.86 1667.81 485.405 1669.96 485.288C1679 485.288 1688.05 484.562 1695.26 484.004C1702.49 483.446 1707.88 482.798 1711.5 482.383C1717.08 481.968 1718.62 480.567 1722.7 482.642C1723.3 483.55 1723.25 484.367 1723.31 485.612C1723.31 486.987 1723.01 488.362 1722.59 502.94C1722.18 517.518 1721.48 545.286 1721.48 574.753C1721.5 604.169 1722.22 635.27 1723.55 666.333L1725.64 666.631ZM1577.1 666.009L1576.67 653.843C1576.15 641.065 1575.82 628.279 1575.68 615.491C1575.66 607.091 1575.56 598.69 1575.38 590.291C1575.18 584.695 1575.08 579.095 1575.09 573.495C1575.09 554.339 1584.1 534.651 1599.3 520.592C1607.61 512.927 1616.78 508.491 1624.23 508.491C1634.49 508.491 1640.9 514.029 1643.63 525.313C1644.42 528.542 1645.3 530.111 1646.29 530.111H1655.23C1655.36 530.12 1655.49 530.093 1655.6 530.034C1655.72 529.974 1655.82 529.885 1655.89 529.774C1656.57 528.763 1656.97 527.591 1657.06 526.376L1658.2 484.562V484.056C1658.2 479.309 1655.23 477.999 1644.34 477.999C1617.6 477.999 1599.59 491.176 1575.14 528.633V487.532C1575.14 483.291 1574.42 481.254 1572.88 481.254H1572.86C1571.83 481.325 1570.81 481.437 1569.79 481.592C1565.33 482.305 1556.72 483.109 1543.93 484.017L1532.91 484.782C1530.81 484.925 1526.22 485.145 1519.11 485.353C1515.63 485.469 1513.87 486.196 1513.87 487.519V496.312C1513.87 498.634 1515.17 499.334 1519.45 499.334H1519.9L1521.78 499.308L1523.91 499.256C1524.82 499.23 1525.74 499.23 1526.64 499.23C1533.48 499.23 1537.25 499.905 1538.58 501.461C1541.59 504.989 1544.02 550.37 1544.02 602.327C1544.02 657.98 1540.73 668.162 1522.44 668.979L1521.56 669.005L1520.73 669.031C1515.1 669.238 1513.9 669.77 1513.9 672.195V680.327C1513.9 682.351 1515.39 683.777 1518.33 683.751L1611.75 683.297L1612.36 683.245C1612.47 683.245 1612.66 683.245 1612.92 683.271C1613.25 683.302 1613.58 683.319 1613.9 683.323C1616.41 683.323 1617.35 682.519 1617.35 680.34V671.521C1617.35 669.42 1615.68 668.992 1607.71 668.992H1605.16C1593.26 668.992 1586.69 668.278 1577.1 666.009ZM1394.12 461.424C1410.73 452.63 1427.4 444.031 1444.03 434.978C1448.06 432.436 1452.21 430.076 1455.35 428.506C1460.69 425.86 1463.59 425.043 1467.05 424.784C1470.98 424.862 1475.1 425.069 1479.69 431.476C1482.64 437.676 1483.31 444.589 1473.29 452.098C1471.42 453.18 1469.44 454.062 1467.39 454.731C1463.35 456.145 1457.23 457.597 1451.76 458.881L1401.15 471.138L1394.12 461.424ZM1442.83 546.466C1442.84 542.498 1442.58 538.534 1442.07 534.599C1441.63 531.311 1440.92 528.066 1439.94 524.898C1439.13 522.253 1438.07 519.691 1436.78 517.245C1434.65 513.146 1431.67 509.55 1428.04 506.701C1411.5 495.43 1393.28 497.687 1374.86 508.05C1365.92 513.394 1358.2 520.546 1352.19 529.048C1349.27 532.757 1349.74 534.378 1346.26 536.882C1344.19 537.828 1340.46 535.131 1337.44 533.6C1336.75 533.274 1336.21 532.686 1335.95 531.966C1335.68 531.175 1335.68 530.15 1336.43 528.14C1339.17 521.681 1346.13 509.425 1358.89 499.049C1383.69 479.607 1410.19 474.134 1438.63 480.022C1442.61 480.995 1446.28 482.253 1449.68 483.757C1453.05 485.262 1456.14 487.026 1458.98 489.036C1464.62 493.051 1469.34 498.224 1472.82 504.211C1476.46 510.358 1478.93 518.387 1479.86 526.052C1480.34 529.878 1480.42 533.471 1480.42 535.507C1480.45 537.543 1480.39 538.023 1480.32 539.917C1480.16 544.508 1479.78 553.262 1479.49 560.136C1478.8 574.792 1478.24 589.453 1477.79 604.117C1477.42 615.362 1477.25 626.613 1477.28 637.864C1477.23 641.133 1477.2 645.646 1477.33 650.536C1477.41 653.324 1477.51 656.087 1477.68 658.006C1478.37 662.286 1478.29 664.232 1481.99 667.046C1485.44 668.875 1487.79 668.771 1491.87 668.992C1493.87 669.07 1496.23 669.095 1497.62 669.095C1500.68 669.095 1499.69 669.069 1500.63 669.069C1501.98 669.173 1504.25 668.538 1506.63 669.977C1507.14 670.457 1507.32 671.248 1507.29 672.027C1507.19 675.036 1507.24 677.552 1507 681.067C1506.28 684.97 1502.18 682.921 1499.34 683.349C1488.09 683.309 1476.85 683.799 1465.65 684.815C1459.97 685.347 1454.07 686.034 1450.8 686.436C1445.32 687.098 1446.17 687.046 1444.29 686.968C1441.63 686.67 1441.68 684.439 1441.6 682.26V656.346C1433.29 663.596 1424.46 670.224 1416.83 675.139C1409.2 680.055 1402.8 683.219 1396.77 685.476C1390.73 687.759 1385.12 689.147 1379.72 689.834C1374.33 690.521 1369.19 690.547 1364.42 689.938C1359.89 689.4 1355.46 688.221 1351.27 686.436C1347.23 684.685 1343.56 682.389 1340.27 679.549C1336.97 676.709 1334.11 673.337 1331.81 669.549C1324.19 656.709 1323.6 641.885 1329.1 627.294C1331.07 622.197 1333.86 617.087 1337.39 612.249C1340.89 607.411 1345.12 602.82 1350.06 598.618C1355 594.441 1360.64 590.693 1368.17 586.737C1375.69 582.782 1385.09 578.683 1397.83 574.403C1412.6 569.558 1427.62 565.493 1442.82 562.225L1442.83 546.466ZM1440.89 635.854C1435.62 641.379 1429.99 646.593 1425.34 650.419C1416.47 657.643 1410.49 660.678 1403.73 662.675C1394.35 664.854 1383.06 666.553 1372.77 657.552C1371 655.864 1369.5 653.907 1368.34 651.755C1361.82 638.513 1363.02 622.78 1377.23 606.361C1379.79 603.598 1382.78 601.017 1386.32 598.514C1389.87 596.011 1393.98 593.572 1399 591.225C1404.04 588.864 1409.97 586.595 1417.41 584.286C1425.79 581.702 1434.27 579.495 1442.85 577.672C1442.85 593.08 1443.03 608.475 1441.96 623.87C1441.66 627.869 1441.3 631.864 1440.89 635.854ZM1311.35 483.641C1300.58 480.393 1289.41 478.66 1278.16 478.492C1209.64 478.492 1165.73 523.224 1165.73 593.093C1165.73 649.278 1201.17 690.016 1249.96 690.016C1278.05 690.016 1300.14 676.034 1317.68 647.099C1318.66 645.503 1319.04 644.414 1319.04 643.247C1319.04 641.95 1318.64 641.12 1317.68 640.458L1312.71 637.138C1312.23 636.81 1311.67 636.617 1311.09 636.58C1309.84 636.58 1308.78 637.41 1306.73 640.121C1292.54 658.59 1279.47 666.54 1263.25 666.54C1225.81 666.54 1199.21 625.504 1199.21 567.698C1199.21 526.065 1221.93 496.507 1253.98 496.507C1276.76 496.507 1296.46 516.221 1301.37 543.898C1301.9 547.063 1302.57 547.919 1304.36 547.919H1311.98C1314.03 547.919 1314.37 547.491 1314.37 545.234C1314.37 544.897 1314.37 544.547 1314.34 544.248L1311.35 483.641ZM1127.03 386.951C1116.24 386.951 1107.53 397.898 1107.53 411.412C1107.53 424.849 1116.27 435.834 1127.03 435.834C1137.75 435.834 1146.51 424.862 1146.51 411.412C1146.51 397.898 1137.8 386.951 1127.03 386.951ZM1144.76 666.333C1143.37 642.974 1142.69 612.936 1142.69 574.714C1142.69 539.009 1143.4 501.824 1144.36 488.336C1144.44 487.207 1144.46 486.3 1144.49 485.625V485.534C1144.49 482.344 1143.73 481.669 1140.13 481.669H1140.08C1138.05 481.776 1136.02 481.971 1134 482.253C1128.39 483.044 1120.9 483.719 1111.48 484.406C1101.7 485.08 1096.94 485.34 1093.17 485.34C1092.48 485.34 1091.81 485.34 1091.17 485.314H1090.56C1086.84 485.314 1086.15 485.703 1086.15 487.856V494.471C1086.15 498.66 1087.11 499.282 1093.83 499.282C1094.49 499.282 1095.13 499.282 1096.04 499.256C1096.8 499.23 1097.58 499.23 1098.34 499.23C1113.6 499.23 1114.58 501.487 1114.58 536.713V605.362C1114.58 661.949 1111.92 668.94 1090.32 668.94H1087.96C1084.58 668.94 1083.22 669.926 1083.22 672.234V679.225C1083.43 682.208 1084.63 683.79 1087.48 683.764L1165.88 683.31C1169.73 683.284 1170.56 682.519 1170.56 678.823V671.832C1170.56 669.757 1169.7 668.94 1167.64 668.94H1166.23C1163.04 668.94 1158.15 668.33 1146.88 666.631L1144.76 666.333ZM991.395 501.591C990.928 560.564 989.917 604.727 988.347 634.077C988.153 637.722 988.062 640.056 988.062 641.172C988.062 672.325 1002.91 690.392 1028.55 690.392C1043.53 690.392 1056.8 683.699 1065.95 671.625C1069.99 666.203 1073.04 659.978 1074.8 653.337C1075.22 651.927 1075.47 650.473 1075.54 649.005C1075.54 647.76 1075.17 646.904 1074.53 646.645L1068.44 644.142C1068.04 643.97 1067.61 643.882 1067.18 643.882C1065.82 643.882 1064.95 645.049 1063.9 648.136C1059.67 660.548 1050.37 669.108 1041.04 669.108C1024.47 669.108 1019.1 655.334 1019.1 612.871C1019.1 607.269 1019.12 601.315 1019.16 595.064L1019.36 570.875L1020.01 521.694L1020.32 501.591H1073.27C1075.7 501.591 1076.02 501.137 1076.02 497.972V488.79C1076.02 486.3 1075.09 485.482 1072.42 485.482H1020.3V425.653C1020.3 422.346 1020.11 421.944 1018.51 421.944H1013.59C1011.11 421.944 1010.07 423.695 1007.89 431.788C999.709 461.916 986.557 478.206 966.208 483.407C962.784 484.289 962.46 484.769 962.46 488.79V497.583C962.46 501.033 962.888 501.604 965.482 501.604L991.395 501.591ZM869.142 690.392C926.858 690.392 969.411 641.937 969.411 576.193C969.411 518.802 932.266 477.778 880.335 477.778C822.49 477.778 779.755 525.987 779.755 591.212C779.755 649.317 816.77 690.392 869.142 690.392ZM817.95 582.406C817.95 559.89 820.078 544.651 825.019 531.875C834.318 507.765 852.839 493.083 873.954 493.083C887.092 493.083 899.621 498.712 909.361 509.01C924.38 524.898 930.852 547.789 930.852 584.999C930.852 642.002 910.438 674.802 875.005 674.802C840.207 674.789 817.95 638.772 817.95 582.406ZM623.404 419.778C636.503 417.689 644.078 416.859 650.926 416.859C690.886 416.859 716.268 436.171 716.268 466.56C716.268 502.473 684.362 528.477 640.343 528.477C635.609 528.477 629.993 528.27 623.404 527.881V419.778ZM623.404 545.701C634.376 544.612 639.02 544.352 645.751 544.352C696.943 544.352 726.89 566.621 726.89 604.636C726.89 642.404 695.685 667.539 648.799 667.539C643.157 667.539 633.702 666.955 623.404 665.97V545.701ZM689.654 533.432C714.27 527.725 722.83 524.223 736.539 514.236C752.479 502.642 761.052 485.495 761.052 465.185C761.052 424.901 728.563 400.894 673.973 400.894H544.392C541.228 400.894 539.892 401.464 539.892 402.735V413.007C540.099 414.901 541.733 415.952 544.509 415.952H559.32C574.21 415.952 581.317 426.885 581.317 449.738V628.889C581.317 655.153 573.652 667.824 557.738 667.824H541.772C539.139 667.824 537.181 668.94 537.181 670.431L537.324 681.041C537.35 682.688 538.167 683.777 540.813 683.777L672.469 683.323C711.08 683.168 736.319 675.567 753.841 658.344C766.979 645.426 775.137 626.749 775.137 609.499C775.137 591.588 769.145 575.856 757.576 563.223C742.428 546.661 723.79 538.49 689.654 533.432Z" fill="white"/>
</svg>
