<svg width="750" height="98" viewBox="0 0 750 98" fill="none" xmlns="http://www.w3.org/2000/svg">
<path d="M161.8 47.0999C169.7 42.8999 175.5 35.7999 175.5 26.2999C175.5 9.7999 162.8 0.399902 140.6 0.399902H98.7V97.5999H144C165.8 97.5999 179.3 87.0999 179.3 70.0999C179.1 58.6999 171.6 51.1999 161.8 47.0999ZM140.9 43.3999H114.8V8.3999H139.4C153.2 8.3999 159.1 13.7999 159.1 26.2999C159.1 38.3999 153.7 43.3999 140.9 43.3999ZM114.8 89.4999V51.4999H140.6C148.8 51.4999 162.5 53.9999 162.5 70.3999C162.5 83.7999 156.6 89.4999 142.6 89.4999H114.8ZM0 55.9999C0 32.7999 17.7 13.9999 39.5 13.9999C61.3 13.9999 79 32.7999 79 55.9999C79 79.1999 61.3 97.9999 39.5 97.9999C17.7 97.9999 0 79.1999 0 55.9999ZM15.3 55.9999C15.3 77.1999 24.3 89.8999 39.5 89.8999C54.6 89.8999 63.6 77.1999 63.6 55.9999C63.6 34.7999 54.7 22.0999 39.5 22.0999C24.3 22.0999 15.3 34.7999 15.3 55.9999ZM192.8 55.9999C192.8 32.7999 210.5 13.9999 232.3 13.9999C254.1 13.9999 271.8 32.7999 271.8 55.9999C271.8 79.1999 254.1 97.9999 232.3 97.9999C210.5 97.9999 192.8 79.1999 192.8 55.9999ZM208.1 55.9999C208.1 77.1999 217.1 89.8999 232.3 89.8999C247.4 89.8999 256.4 77.1999 256.4 55.9999C256.4 34.7999 247.4 22.0999 232.3 22.0999C217.2 22.0999 208.1 34.7999 208.1 55.9999ZM304.1 23.0999H275.2V15.0999H347.7V23.0999H318.7V96.8999H304.1V23.0999ZM377 15.0999H362.4V96.7999H377V15.0999ZM432.7 89.6999C439.2 89.6999 450.8 87.6999 455.8 73.8999L457.2 69.8999L464.3 73.3999L463.1 76.5999C458.2 89.9999 446.9 97.6999 432.1 97.6999C409.8 97.6999 393.1 79.6999 393.1 55.8999C393.1 32.3999 410.2 13.8999 432.1 13.8999C446.8 13.8999 458.1 21.6999 462.9 35.1999L464 38.3999L456.9 42.0999L455.5 38.0999C451.9 27.9999 443.6 22.1999 432.6 22.1999C417.4 22.1999 408.3 34.7999 408.3 55.8999C408.3 76.9999 417.5 89.6999 432.7 89.6999ZM618 81.9999L613.8 69.5999C612.1 64.9999 608.9 61.1999 604.7 58.6999C612.3 55.2999 618.9 48.8999 618.9 38.6999C618.9 23.8999 607.1 15.0999 587.3 15.0999H557.5V96.7999H572.2V61.9999H585C594.4 61.9999 597.4 65.7999 600 73.1999L604.1 84.9999C605.1 88.5999 606.7 91.9999 608.7 95.1999L609.8 96.7999H629.5L622.5 90.2999C620.4 87.8999 618.8 85.0999 618 81.9999ZM572.2 22.9999H586.3C598.6 22.9999 603.9 27.6999 603.9 38.6999C603.9 49.2999 598.5 53.9999 586.4 53.9999H572.2V22.9999ZM640.3 14.9999H655V96.6999H640.4L640.3 14.9999ZM710.5 13.8999C688.7 13.8999 671 32.6999 671 55.8999C671 79.0999 688.8 97.8999 710.5 97.8999C732.2 97.8999 750 79.1999 750 55.9999C750 32.7999 732.3 13.9999 710.5 13.8999ZM710.5 21.8999C725.6 21.8999 734.6 34.5999 734.6 55.7999C734.6 76.9999 725.6 89.6999 710.5 89.6999C695.4 89.6999 686.3 77.0999 686.3 55.8999C686.3 34.6999 695.4 21.9999 710.5 21.8999ZM508.6 2.09991H517.2L510.5 17.8999L545.5 96.7999H530L517.7 68.9999H488.8L476.8 96.6999H468.2L508.6 2.09991ZM502.8 35.7999L492.1 60.9999H514L502.8 35.7999Z" fill="white"/>
</svg>
