<svg version="1.2" xmlns="http://www.w3.org/2000/svg" viewBox="0 0 1550 1553" width="1550" height="1553">
	<title>FYBR_BIG copy-svg</title>
	<style>
		.s0 { fill: #ff0035 } 
	</style>
	<g id="g187">
		<path id="Layer" fill-rule="evenodd" class="s0" d="m1549.1 774.8c0 430.1-348.1 778.2-774.6 778.2-387.3 0-708.3-285.7-767.6-657 0-6.5 3.5-13.1 6.5-16.1 3.5-3.5 6.6-6.6 13.1-6.6h150.9c13.1 0 26.6 9.6 26.6 22.7 55.4 262.6 291.8 462.9 570.5 462.9 321.9 0 580.9-262.6 580.9-584.6 0-318-259-580.6-580.9-580.6h-757.6c-3.5 0-10 0-13-6.6-3.5-3.4-3.5-6.5-3.5-13.5v-154c0-3 0-10 3.5-13.1 3-3 9.5-6.5 13-6.5h757.6c426.5 0 774.6 348.1 774.6 774.8zm-1545.7-295.8c-3-3.1-3-9.6-3-13.1v-154c0-6.5 0-10 3-16.6 3.5-3.5 9.6-3.5 13.1-3.5h639.8c6.5 0 10 0 16.6 3.5 3 6.6 3 10.1 3 16.6v154c0 3.5 0 10-3 13.1-6.6 3.5-10.1 7-16.6 7h-639.8c-3.1 0-9.6-3.5-13.1-7zm13.1 295.8c-3.5 0-9.6 0-13.1-3.1-3-3.5-3-10-3-16.6v-154.4c0-3.5 0-9.6 3-13.1 3.5-3.5 10-6.5 13.1-6.5h351.1c3.5 0 10 3 13.1 6.5 3.5 3.5 6.5 9.6 6.5 13.1v154.4c0 6.6-3 13.1-6.5 16.6-3.1 3.1-9.6 3.1-13.1 3.1z"/>
	</g>
</svg>