<svg width="75" height="66" viewBox="0 0 75 66" fill="none" xmlns="http://www.w3.org/2000/svg">
<path d="M63.2668 55.4962H52.2913V40.3906C52.2913 36.7891 52.2172 32.1517 46.5813 32.1517C40.8651 32.1517 39.9885 36.0786 39.9885 40.1248V55.4962H29.013V24.4335H39.5503V28.6804H39.6984C41.8466 25.4586 45.8467 23.5277 50.0937 23.6633C61.2174 23.6633 63.273 30.0906 63.273 38.4597L63.2668 55.4908V55.4962ZM16.63 20.1865C14.944 20.1794 13.3293 19.5881 12.1365 18.5411C10.9438 17.4941 10.2693 16.0759 10.2595 14.5945C10.2595 11.5245 13.1361 8.997 16.63 8.997C20.1239 8.997 22.9944 11.5245 23.0005 14.5945C23.0005 17.6644 20.1239 20.1865 16.63 20.1865ZM22.1178 55.4962H11.1299V24.4335H22.1178V55.4962ZM68.7299 0.0367017H5.61127C4.18007 0.0293977 2.80342 0.518669 1.78047 1.39819C0.75752 2.27771 0.170939 3.47642 0.148193 4.73381V60.4265C0.170939 61.6839 0.75752 62.8826 1.78047 63.7622C2.80342 64.6417 4.18007 65.131 5.61127 65.1236H68.7361C70.1706 65.1339 71.5517 64.6462 72.5793 63.7667C73.6068 62.8871 74.1978 61.6868 74.2238 60.4265V4.72839C74.1978 3.4691 73.6064 2.26988 72.5785 1.39208C71.5506 0.51427 70.1694 0.0290371 68.7361 0.0421252L68.7299 0.0367017Z" fill="white"/>
</svg>
