<svg width="2501" height="1095" viewBox="0 0 2501 1095" fill="none" xmlns="http://www.w3.org/2000/svg">
<path d="M1.59149 690.202V400.006H232.352V423.069H27.0519V528.413H224.013V551.489H27.0519V667.125H234.709V690.202H1.59149ZM498.596 690.202L291.881 438.116V690.202H266.407V400.006H294.737L501.465 652.132V400.006H526.898V690.202H498.596ZM575.246 690.202V400.006H805.98V423.069H600.68V528.413H797.668V551.476H600.68V667.125H808.378V690.202H575.246ZM985.159 538.301C993.997 538.328 1013.61 538.261 1030.58 530.555C1047.49 522.742 1061.84 508.409 1062 477.344C1061.84 433.967 1029.7 423.513 989.901 423.082H865.495V538.314H985.173L985.159 538.301ZM1067.37 690.215L1066.35 689.259C1059.14 681.553 1058.81 664.377 1057.26 620.879C1056.66 596.577 1052.39 582.069 1042.53 573.595C1032.7 564.974 1015.63 561.337 987.935 561.391H865.482V690.215H840.048V400.006H988.325C1015.81 400.02 1040.32 403.846 1058.43 415.768C1076.61 427.676 1087.54 448.017 1087.43 478.543C1087.54 505.997 1072.28 535.755 1039.12 548.458C1067.17 556.756 1082.52 580.088 1082.69 608.081C1083.43 659.541 1085.26 676.003 1090.21 684.867L1093.06 690.215H1067.37Z" fill="white"/>
<path d="M232.662 298.138L25.9742 46.0388V298.138H0.513794V7.94238H28.7897L235.545 260.041V7.94238H260.992V298.138H232.662ZM309.326 298.138V7.94238H540.087V31.005H334.786V136.349H531.734V159.412H334.786V275.061H542.457V298.138H309.326ZM810.412 7.94238H1071.74V31.005H957.57V298.138H932.137V31.005H817.969V8.10404L699.396 150.629L822.091 298.138H788.494L682.396 170.148L575.098 298.138H542.7L665.826 150.629L547.105 7.94238H581.052L682.409 130.772L785.733 7.94238H810.412Z" fill="#6EC72E"/>
<path d="M2039.6 397.891C2039.6 397.891 2046.56 417.047 2047.41 443.181L1931.63 578.122L2091.83 457.11L2099.68 494.56C2099.68 494.56 1977.79 632.976 1948.17 672.15C1948.17 672.15 2103.56 543.568 2190.39 491.637C2152.08 420.873 2077.22 372.808 1991.08 372.808C1865.98 372.808 1764.57 474.246 1764.57 599.339C1764.57 602.814 1764.91 606.182 1765.07 609.631C1815.4 566.011 1950.96 450.954 2039.6 397.891ZM2217.61 604.795C2217.61 582.244 2214.21 560.488 2208.07 539.918C2155.79 567.708 2031.56 636.519 1942.38 708.388C2017.52 718.746 2092.22 732.088 2166.29 748.383C2199.55 707.927 2217.69 657.163 2217.62 604.795" fill="#2F97DA"/>
<path d="M2043.95 526.985C2043.95 526.985 1915.97 626.241 1898.53 642.783L1881.12 610.587C1881.12 610.587 1969.06 500.878 1997.8 472.131C1997.8 472.131 1841.2 583.604 1769.27 650.96C1772.13 664.768 1776.32 678.078 1781.59 690.848C1820.14 693.92 1859.18 697.894 1898.68 702.703C1901.44 699.362 2028.43 546.801 2043.95 526.985Z" fill="#2F97DA"/>
<path d="M1273 696.546C1229.24 696.546 1190.62 682.711 1162.94 656.726C1135.27 630.753 1118.74 592.67 1118.75 545.09C1118.75 510.012 1130.69 472.265 1156.01 443.114C1181.3 413.962 1220.14 393.621 1273 393.675C1343.45 393.459 1396.72 428.781 1410.86 491.57L1411.87 495.988H1386.22L1385.58 493.159C1374.12 442.858 1328.66 416.872 1273 416.724C1194.08 416.832 1144.33 475.472 1144.19 545.104C1144.44 614.548 1188.08 673.309 1273 673.484C1341.48 673.228 1385.31 632.841 1391.17 564.947H1277.7V541.884H1417.08L1416.92 545.67C1415.74 569.325 1408.69 599.716 1401.86 618.953C1379.85 671.18 1328.4 696.546 1273.19 696.546H1273ZM1566.88 683.493C1561.93 683.479 1556.98 683.398 1552.08 683.398L1548.67 683.439H1545.06L1545.03 568.934L1409.99 399.993H1444.58L1557.79 544.807L1673.36 399.993H1705.6L1570.51 568.934V683.52L1566.88 683.493Z" fill="white"/>
<path d="M2157.19 758.742C2081.92 742.395 2006.03 729.093 1929.69 718.868C1922.01 717.817 1914.33 716.847 1906.68 715.877C1866.4 710.812 1826.55 706.703 1787.22 703.484C1711.55 697.239 1635.66 694.111 1559.74 694.108H1559.64C830.282 694.108 299.33 982.377 121.107 1094.01C699.975 832.793 1239.75 756.924 1671.63 756.924C2041.42 756.924 2332.08 812.56 2500.51 855.169C2388.08 816.262 2273.44 784.063 2157.19 758.742Z" fill="#6EC72E"/>
<path d="M1137.29 124.966C1148.39 67.0941 1191.75 51.0365 1222.56 51.0365C1255.31 51.0365 1300.61 68.1718 1308.8 124.966H1137.29ZM1378.17 161.392C1378.17 78.3695 1334.83 0.667969 1221.6 0.667969C1131.04 0.667969 1067.93 61.1803 1067.93 156.017C1067.93 231.59 1110.79 306.032 1225.94 306.032C1323.3 306.032 1357.96 243.35 1372.44 211.734H1300.13C1287.1 235.308 1267.84 252.457 1224.02 252.457C1158.01 252.457 1139.42 201.038 1137.29 172.102H1378.17V161.392ZM1812.04 180.817C1812.04 242.892 1752.45 257.738 1717.1 257.738C1694.74 257.738 1664.19 250.827 1664.19 213.687C1664.19 189.843 1676.12 177.598 1725.75 171.28C1772.44 165.42 1792.97 162.793 1812.04 153.754V180.817ZM1891.15 246.341C1885.6 244.94 1877.86 244.994 1877.86 229.596V96.4747C1877.86 59.8871 1874.07 2.08244 1741.97 2.08244C1667.04 2.08244 1617.95 24.8487 1608.41 98.5896H1672.77C1675.15 67.2962 1698.5 51.9256 1741.97 51.9256C1780.06 51.9256 1813.5 59.8736 1813.5 92.2313C1813.5 113.96 1803.44 117.692 1708.98 127.782C1667.04 132.012 1595.5 138.909 1595.5 216.341C1595.5 271.519 1632.68 304.388 1698.51 304.388C1772.44 304.388 1804.42 279.467 1817.34 265.686C1819.21 276.287 1823.98 301.734 1866.9 301.734C1877.65 301.734 1896.37 300.886 1905.12 299.714L1905.29 248.645C1896.62 247.904 1895.05 247.311 1891.15 246.341ZM1594.45 3.40261C1585.61 1.74566 1590.57 0.667969 1580.19 0.667969C1528.11 0.667969 1500.12 31.8267 1481.88 64.6289H1480.94V8.33304H1413.1V298.057H1480.94V158.092C1480.94 90.8841 1529.6 70.6505 1563.99 70.6505C1569.12 70.6505 1588.3 70.7987 1594.18 71.4318L1594.45 3.40261Z" fill="#2F97DA"/>
</svg>
