<svg width="77" height="65" viewBox="0 0 77 65" fill="none" xmlns="http://www.w3.org/2000/svg">
<path d="M44.4465 18.313H44.3731C43.6927 18.313 43.1777 18.7734 43.1777 19.3412C43.1777 19.909 43.766 20.3694 44.4465 20.3694C45.1269 20.3694 45.6785 19.909 45.6785 19.3412C45.6785 18.7734 45.1268 18.313 44.4465 18.313Z" fill="white"/>
<path d="M54.4488 18.313H54.3802C53.6998 18.313 53.1824 18.7734 53.1824 19.3412C53.1824 19.909 53.7683 20.3694 54.4487 20.3694C55.129 20.3694 55.6807 19.909 55.6807 19.3412C55.6807 18.7734 55.1292 18.313 54.4488 18.313Z" fill="white"/>
<path d="M64.4555 18.313H64.3821C63.7018 18.313 63.1868 18.7734 63.1868 19.3412C63.1868 19.909 63.7751 20.3694 64.4555 20.3694C65.136 20.3694 65.6876 19.909 65.6876 19.3412C65.6876 18.7734 65.136 18.313 64.4555 18.313Z" fill="white"/>
<path d="M54.4694 46.9894C48.1236 44.0009 46.2232 44.2451 41.3842 46.5296C38.9014 47.9076 35.9117 47.0673 30.7158 43.5335C29.6959 42.8395 28.671 42.0656 27.6732 41.2365C26.676 40.4002 25.7499 39.5445 24.9194 38.6921C21.0024 34.6784 19.936 31.0154 21.2083 29.9114C24.9574 26.5449 24.1065 23.7805 20.7972 18.8813C18.8041 15.7329 16.6154 12.5991 13.7023 11.88C11.59 11.3619 8.45356 12.7192 7.51961 13.2369C5.11733 14.5731 2.83595 16.9365 1.56555 19.4055C-0.771169 23.948 -0.151372 29.4225 1.20814 33.0317C3.44133 38.9485 8.80135 45.8001 15.5474 51.3601C22.2079 56.996 30.4125 61.471 37.4949 63.3309C39.7323 63.9204 42.5685 64.344 45.5407 64.344C48.3059 64.344 51.189 63.9772 53.8133 63.0359C56.7698 61.9731 59.5982 60.0679 61.1942 58.0643C61.8152 57.2869 63.4466 54.6682 62.819 52.8967C61.9627 50.4684 58.2101 48.6402 54.4694 46.9894ZM53.2881 48.7959C55.5707 49.8035 59.8198 51.6795 60.4546 53.4801C60.5848 53.8469 60.4265 54.5154 60.1344 55.2102L43.4604 47.9142C46.5965 46.4642 47.8664 46.2423 53.2881 48.7959ZM13.005 13.8543C15.1647 14.3875 17.4112 17.9364 18.634 19.8676C21.8647 24.6503 21.8544 26.1595 19.777 28.1607L10.7825 14.1674C11.4677 13.9558 12.1442 13.8162 12.6299 13.8162C12.7733 13.8161 12.8996 13.8283 13.005 13.8543ZM52.8397 61.1448C48.0116 62.8775 41.9558 62.3483 38.2351 61.3674C31.5162 59.6029 23.6883 55.3194 17.2962 49.9096C17.292 49.9061 17.2885 49.9031 17.2842 49.8995C10.809 44.5636 5.67772 38.0262 3.5594 32.4134C2.38894 29.3058 1.75768 24.2473 3.83078 20.2175C4.87109 18.1956 6.68056 16.2766 8.60022 15.125L18.3649 30.3177C17.8273 32.7602 19.4974 36.3938 23.0082 39.9922C23.8898 40.8967 24.8719 41.8043 25.9305 42.6917C26.9897 43.5727 28.0758 44.3928 29.159 45.1296C32.9647 47.7183 36.9608 49.8908 40.7029 49.0317L59.0304 57.0512C57.6657 58.6948 55.3161 60.2548 52.8397 61.1448Z" fill="white"/>
<path d="M73.893 10.8079C68.2597 1.84169 54.9387 -1.62626 44.1976 3.07435C33.4607 7.7801 29.306 18.9051 34.9368 27.8733C35.3448 28.5231 35.8106 29.1649 36.3262 29.789L32.9971 34.554C32.7648 34.8862 32.7738 35.2992 33.0212 35.6239C33.2673 35.9491 33.7109 36.1295 34.1699 36.0978L43.7214 35.3927C47.0607 36.9435 50.7339 37.7214 54.4126 37.7214C57.9095 37.7214 61.4113 37.0179 64.6333 35.6062C75.3709 30.9011 79.525 19.7766 73.893 10.8079ZM63.4882 33.7837C57.5143 36.4009 50.4584 36.2757 44.6128 33.449C44.4251 33.358 44.2114 33.3102 43.9954 33.3102C43.9592 33.3102 43.9231 33.3118 43.887 33.3142L36.3275 33.8721L38.8579 30.2504C39.1065 29.894 39.0769 29.4483 38.7821 29.1176C38.1496 28.4076 37.5906 27.6673 37.12 26.9175C32.1199 18.9544 35.8081 9.07616 45.3428 4.89704C54.8792 0.720493 66.7071 3.80301 71.7103 11.7642C76.7111 19.7278 73.0221 29.6056 63.4882 33.7837Z" fill="white"/>
</svg>
