<svg version="1.1" id="Camada_1" xmlns="http://www.w3.org/2000/svg" x="0" y="0" viewBox="0 0 1000 519.1" style="enable-background:new 0 0 1000 519.1" xml:space="preserve"><style>.st0{fill:#007ac2}</style><path class="st0" d="M236.9 26.2h527L965.4 262 764 494.5H236.9L34.6 261.2l202.3-235M776.7 0H224.2L0 260.4l224.2 258.7h552.4L1000 261.2 776.7 0z"/><path class="st0" d="M538.8 294.8c-.1 2.3-.3 4.4-.4 6-.9 11.8-5.1 24.4-19.6 24.4-13.5 0-18.8-13.7-19.8-23.7-.6-6.1-.4-10.8-.6-28.8-.1-21 .5-26.4.8-29.8 1.2-13.3 6.3-23.5 19.6-23.6 13.7-.1 19.4 11.8 19.6 23.5 0 .1.3 2.9.5 9.2H571c-.1-2.1-.2-3.9-.3-5-3.6-44.3-30.6-55.1-51.9-55.1-30.2 0-48.6 19.2-51.9 55.4-.3 2.9-.7 8.2-.9 25.3-.1 12.4.6 22.6.8 25.2 2.1 33.8 21.5 54.6 51.9 54.7 31.5.1 48.9-19.1 51.9-54.7.1-1.3.3-2.2.2-3.1l-32 .1M243.5 164.3h15.3c16.7 0 25.7 8.8 26.1 24.6 0 1.2.2 2.5.2 4.9 0 2.9 0 3.9-.1 5-.9 9.4-5.1 25.8-24.6 25.8h-16.9v-60.3m76.8 171.5-3.3-52.5c-1.4-23.5-7.6-37.3-19.7-44.4 8.8-5.3 20.1-18.3 20-45.6-.1-41.5-25.9-56.1-56.2-56.4h-49.6V349h32v-97h17.8c10.3 0 21.9 9 23.7 34.3l3.3 49.7c.3 7 1.6 13.1 1.6 13.1h32s-1.4-5.9-1.6-13.3zm428.8-82.4c.2-7.1.2-8.6.4-10.6.9-12.8 6.6-23.4 19.8-23.5 15.5-.1 19.2 15.1 19.8 23.6.3 4.4.6 7.4.6 10.5h-40.6m40.1 42.8s.1 2.4-.3 5.3c-.9 7.5-3.9 23.7-19.7 23.7-13.4 0-18.6-12.2-19.5-24.4-.2-3.5-.8-7.3-.8-20.5h72.3s.1-10.8-.1-17.2c-.1-2.5-.2-6.8-.8-15.7-1-13.7-6.1-28.7-14-38.4-9.1-11.2-21.9-17.1-37.1-17.1-29.2 0-47.5 19-51.1 55.5-.3 3.3-.9 7.8-.9 25.3 0 12.4.7 22.8.8 25.2 2 33.3 21.6 54.7 51.1 54.7 29.4 0 49.1-20.9 51.1-56.3l-31-.1zm-376.5-23.6c0 20.9-.7 26.8-.8 28.6-1.1 11.6-6.1 23.9-19.6 23.9-13.5 0-19-13.1-19.6-24.4 0-.1-.8-7.2-.8-28.1 0-21 .8-29.7.8-29.8.2-11.8 6.3-23.6 19.6-23.6s19.4 11.8 19.6 23.5c0 .3.8 9 .8 29.9m31.4-25.2c-4.6-45.7-30.5-55.5-51.8-55.5-30.2 0-48.5 19.2-51.9 55.4-.3 2.9-.7 8.2-.9 25.3-.1 12.4.7 22.6.8 25.2 2.1 33.8 21.5 54.7 51.9 54.7s49.8-21.2 51.9-54.7c.1-2.4.8-12.8.8-25.2.1-5.6-.4-20.9-.8-25.2zm232.4-48.2c-6.3-4.7-16.1-7.5-25.7-7.4-10.4.1-20.3 3.5-27.2 9v-65.6h-32.4V349h32.4V237.5c0-7.8 6.5-16.4 18.6-16.9 5.4-.2 12.9 2.1 16.6 7.8 4 6 3.8 14 3.8 22.7v98H695v-99.3c0-29.3-3.8-39.7-18.5-50.6"/></svg>