<svg version="1.2" xmlns="http://www.w3.org/2000/svg" viewBox="0 0 1546 403" width="1546" height="403"><defs><clipPath clipPathUnits="userSpaceOnUse" id="cp1"><path d="m-4554-4347h6627v5124h-6627z"/></clipPath></defs><style>.a{fill:#ffcf31}</style><g clip-path="url(#cp1)"><path  d="m1.6 223.6l9.1-16.1c1.6-2.5 5.2-2.1 6.6-1.1 0.8 0.3 14.7 10.6 27.4 10.6 7.7 0 13.3-4.8 13.3-11.6 0-8.1-6.7-14.3-19.9-19.5-16.6-6.6-37.4-19.5-37.4-42.7 0-19.1 14.8-38.5 44.6-38.5 20.1 0 35.5 10.3 41.3 14.5 2.3 1.4 1.9 4.9 1.2 6.2l-9.9 14.9c-1.3 2.1-4.8 3.8-6.6 2.5-1.7-1-15.8-11.6-27.6-11.6-6.9 0-12.1 4.6-12.1 9.9 0 7.1 5.8 12.5 21 18.7 15.1 6 39 17.8 39 44 0 19.9-17.2 40-45.5 40-25.1 0-39.1-10.4-43.5-14.8-1.9-2-2.5-2.7-1-5.4zm183.8-113.3c0-1.9 1.5-3.6 3.6-3.6h80c2.1 0 3.7 1.7 3.7 3.6v21.1c0 1.9-1.6 3.7-3.7 3.7h-53.5v23.9h44c1.9 0 3.7 1.8 3.7 3.7v21.1c0 2.1-1.8 3.6-3.7 3.6h-44v26.1h53.5c2.1 0 3.7 1.8 3.7 3.7v21c0 2-1.6 3.7-3.7 3.7h-80c-2.1 0-3.6-1.7-3.6-3.7zm179.1 0c0-1.9 1.5-3.6 3.6-3.6h23c2 0 3.7 1.7 3.7 3.6v103.2h45.9c2.2 0 3.7 1.8 3.7 3.7v21c0 2-1.5 3.7-3.7 3.7h-72.6c-2.1 0-3.6-1.7-3.6-3.7zm171.2 0c0-1.9 1.5-3.6 3.6-3.6h80c2.1 0 3.7 1.7 3.7 3.6v21.1c0 1.9-1.6 3.7-3.7 3.7h-53.5v23.9h44c2 0 3.7 1.8 3.7 3.7v21.1c0 2.1-1.7 3.6-3.7 3.6h-44v26.1h53.5c2.1 0 3.7 1.8 3.7 3.7v21c0 2-1.6 3.7-3.7 3.7h-80c-2.1 0-3.6-1.7-3.6-3.7zm250.6-5.6c19.3 0 33.6 6 46.7 18 1.7 1.6 1.7 3.9 0.2 5.4l-15.1 15.7c-1.3 1.3-3.4 1.3-4.8 0-7.1-6.4-16.6-9.9-26.1-9.9-21.8 0-37.8 18.2-37.8 39.8 0 21.5 16.2 39.2 38 39.2 9.1 0 19-3.3 25.9-9.2 1.4-1.2 3.9-1.2 5 0.2l15.1 16c1.3 1.3 1.2 3.9-0.2 5.2-13.1 12.8-29.7 18.7-46.9 18.7-38.6 0-69.7-30.7-69.7-69.3 0-38.7 31.1-69.8 69.7-69.8zm171.6 30.4h-27.6c-2.1 0-3.7-1.8-3.7-3.7v-21.1c0-1.9 1.6-3.6 3.7-3.6h85.7c2.2 0 3.7 1.7 3.7 3.6v21.1c0 1.9-1.5 3.7-3.7 3.7h-27.6v103.1c0 2-1.7 3.7-3.6 3.7h-23.2c-2 0-3.7-1.7-3.7-3.7zm154.8-24.7c0-1.9 1.8-3.6 3.7-3.6h23.2c1.9 0 3.6 1.7 3.6 3.6v127.9c0 1.9-1.7 3.7-3.6 3.7h-23.2c-1.9 0-3.7-1.8-3.7-3.7zm123 1.4c-1.1-2.5 0.4-5 3.3-5h25.7c1.5 0 2.9 1.1 3.3 2.1l31.8 70.5h1.2l31.9-70.5c0.3-1 1.7-2.1 3.2-2.1h25.7c2.9 0 4.5 2.5 3.3 5l-60.6 130c-0.6 1.2-1.8 2.1-3.3 2.1h-1.9c-1.6 0-2.7-0.9-3.3-2.1zm222.8-1.4c0-1.9 1.5-3.6 3.7-3.6h79.9c2.1 0 3.7 1.7 3.7 3.6v21.1c0 1.9-1.6 3.7-3.7 3.7h-53.5v23.9h44c2 0 3.7 1.8 3.7 3.7v21.1c0 2.1-1.7 3.6-3.7 3.6h-44v26.1h53.5c2.1 0 3.7 1.8 3.7 3.7v21c0 2-1.6 3.7-3.7 3.7h-79.9c-2.2 0-3.7-1.7-3.7-3.7z"/><path class="a" d="m1300.4 60c-16.6 0-30-13.4-30-30 0-16.6 13.4-30 30-30 16.6 0 30 13.4 30 30 0 16.6-13.4 30-30 30zm-89.2 15c-12.5 0-22.5-10.1-22.5-22.5 0-12.4 10-22.5 22.5-22.5 12.4 0 22.4 10.1 22.4 22.5 0 12.4-10 22.5-22.4 22.5zm177.4 0c-12.4 0-22.4-10.1-22.4-22.5 0-12.4 10-22.5 22.4-22.5 12.4 0 22.5 10.1 22.5 22.5 0 12.4-10.1 22.5-22.5 22.5z"/><path fill-rule="evenodd" d="m273.5 320.5c0-0.9 0.8-1.8 1.8-1.8h20.8c11.2 0 19.3 7.5 19.3 17.2 0 7.2-5.3 12.3-9.7 14.8 4.9 2 11.6 6.6 11.6 15.1 0 10.4-8.5 18-20.2 18h-21.8c-1 0-1.8-0.9-1.8-1.8zm23.5 54.7c5.7 0 10-4.4 10-10.1 0-5.7-5.4-9.8-11.4-9.8h-12.7v19.9zm-1.5-28.2c5.9 0 9.6-4.4 9.6-10 0-5.6-3.7-9.5-9.6-9.5h-12.5v19.5zm36.8-26.5c0-0.9 0.7-1.8 1.7-1.8h37.2c1 0 1.7 0.9 1.7 1.8v5.2c0 0.9-0.7 1.8-1.7 1.8h-29.4v18.9h24.8c1 0 1.8 0.9 1.8 1.8v5.2c0 1-0.8 1.7-1.8 1.7h-24.8v20h29.4c1 0 1.7 0.8 1.7 1.8v5.1c0 0.9-0.7 1.7-1.7 1.7h-37.2c-1 0-1.7-0.8-1.7-1.7zm78.9 0c0-0.9 0.8-1.8 1.7-1.8h6.3c1 0 1.7 0.9 1.7 1.8v38.3c0 9.3 6 16.6 15.4 16.6 9.6 0 15.6-7.2 15.6-16.4v-38.5c0-0.9 0.8-1.8 1.8-1.8h6.2c0.9 0 1.8 0.9 1.8 1.8v39c0 14.1-10.7 25.2-25.4 25.2-14.5 0-25.1-11.1-25.1-25.2zm68.4-1c0-1 0.8-1.7 1.7-1.7h2.3l40.3 46.6h0.1v-43.9c0-0.9 0.8-1.8 1.8-1.8h5.9c1 0 1.8 0.9 1.8 1.8v62.5c0 0.9-0.8 1.7-1.8 1.7h-2.4l-40.3-48h-0.1v45.3c0 0.9-0.7 1.7-1.7 1.7h-5.9c-0.9 0-1.7-0.8-1.7-1.7zm72.4 1c0-0.9 0.9-1.8 1.8-1.8h6.1c0.9 0 1.8 0.9 1.8 1.8v61.5c0 0.9-0.9 1.8-1.8 1.8h-6.1c-0.9 0-1.8-0.9-1.8-1.8zm57-2.7c18.5 0 33.4 14.9 33.4 33.5 0 13.2-7.7 24.6-18.9 30.2l11.2 17.8c0.8 1.3 0 2.8-1.5 2.8h-7.2c-0.4 0-1.2-0.3-1.5-0.9l-10-16.9c-1.8 0.3-3.9 0.4-5.5 0.4-18.6 0-33.4-14.8-33.4-33.4 0-18.6 14.8-33.5 33.4-33.5zm24.1 33.4c0-13.3-10.8-24.1-24.1-24.1-13.3 0-24.1 10.8-24.1 24.1 0 13.4 10.8 24.2 24.1 24.2 13.3 0 24.1-10.8 24.1-24.2zm22.7-30.7c0-0.9 0.8-1.8 1.7-1.8h6.3c1 0 1.7 0.9 1.7 1.8v38.3c0 9.3 6 16.6 15.4 16.6 9.6 0 15.6-7.2 15.6-16.4v-38.5c0-0.9 0.8-1.8 1.8-1.8h6.2c0.9 0 1.8 0.9 1.8 1.8v39c0 14.1-10.7 25.2-25.4 25.2-14.5 0-25.1-11.1-25.1-25.2zm68.4 0c0-0.9 0.7-1.8 1.7-1.8h37.2c1 0 1.7 0.9 1.7 1.8v5.2c0 0.9-0.7 1.8-1.7 1.8h-29.4v18.9h24.8c0.9 0 1.8 0.8 1.8 1.8v5.2c0 1-0.9 1.7-1.8 1.7h-24.8v20h29.4c1 0 1.7 0.8 1.7 1.8v5.1c0 0.9-0.7 1.7-1.7 1.7h-37.2c-1 0-1.7-0.8-1.7-1.7zm54.6 0c0-0.9 0.8-1.8 1.8-1.8h6.1c0.9 0 1.8 0.9 1.8 1.8v54.6h25.1c1.1 0 1.8 0.8 1.8 1.8v5.1c0 0.9-0.7 1.7-1.8 1.7h-33c-1 0-1.8-0.8-1.8-1.7zm53 31.9l-21.7-31c-0.7-1.2 0-2.7 1.5-2.7h6.9c0.7 0 1.2 0.5 1.5 0.8l16.8 23.7 16.8-23.7c0.2-0.3 0.8-0.8 1.4-0.8h7c1.5 0 2.2 1.5 1.5 2.7l-22 30.9v29.7c0 0.9-0.8 1.7-1.8 1.7h-6.1c-1 0-1.8-0.8-1.8-1.7zm65.7-32c0-0.9 0.8-1.8 1.7-1.8h6.2c0.9 0 1.7 0.9 1.7 1.8v61.5c0 0.9-0.8 1.8-1.7 1.8h-6.2c-0.9 0-1.7-0.9-1.7-1.8zm28-1c0-1 0.8-1.7 1.8-1.7h2.3l40.3 46.6h0.1v-43.9c0-0.9 0.7-1.8 1.7-1.8h6c0.9 0 1.7 0.9 1.7 1.8v62.5c0 0.9-0.8 1.7-1.7 1.7h-2.5l-40.2-48h-0.1v45.3c0 0.9-0.8 1.7-1.8 1.7h-5.8c-1 0-1.8-0.8-1.8-1.7zm68.8 54.9c0.8-1.2 1.6-2.6 2.4-3.8 0.8-1.2 2.1-1.6 3.2-0.8 0.5 0.5 7.7 6.4 14.8 6.4 6.4 0 10.5-3.9 10.5-8.6 0-5.6-4.8-9.1-14-12.9-9.5-4-16.9-8.9-16.9-19.7 0-7.3 5.6-17.2 20.3-17.2 9.3 0 16.3 4.8 17.2 5.5 0.7 0.4 1.5 1.7 0.6 3.1-0.8 1.2-1.6 2.5-2.4 3.6-0.7 1.2-1.9 1.7-3.2 0.9-0.7-0.4-7.2-4.6-12.5-4.6-7.8 0-10.5 4.9-10.5 8.3 0 5.3 4.1 8.6 11.8 11.7 10.7 4.4 19.9 9.5 19.9 20.8 0 9.7-8.6 17.6-20.7 17.6-11.3 0-18.5-6-19.9-7.4-0.9-0.7-1.5-1.4-0.6-2.9zm53.5-53.9c0-0.9 0.9-1.8 1.8-1.8h6.2c1 0 1.8 0.9 1.8 1.8v38.3c0 9.3 5.9 16.6 15.4 16.6 9.5 0 15.6-7.2 15.6-16.4v-38.5c0-0.9 0.7-1.8 1.7-1.8h6.3c0.9 0 1.7 0.9 1.7 1.8v39c0 14.1-10.6 25.2-25.3 25.2-14.6 0-25.2-11.1-25.2-25.2zm68.4 0c0-0.9 0.8-1.8 1.8-1.8h25.2c11.2 0 20.3 8.9 20.3 19.9 0 8.6-5.7 15.6-13.8 18.9l12.7 23.6c0.7 1.2 0 2.7-1.5 2.7h-7.3c-0.7 0-1.3-0.5-1.5-0.9l-12.3-24.6h-14v23.7c0 0.9-0.9 1.8-1.8 1.8h-6c-1 0-1.8-0.9-1.8-1.8zm26.3 29.8c6 0 11.3-5.1 11.3-11.5 0-6-5.3-11.1-11.3-11.1h-16.5v22.6zm36-29.8c0-0.9 0.8-1.8 1.8-1.8h37.1c1 0 1.8 0.9 1.8 1.8v5.2c0 0.9-0.8 1.8-1.8 1.8h-29.3v18.9h24.8c0.9 0 1.7 0.8 1.7 1.8v5.2c0 1-0.8 1.7-1.7 1.7h-24.8v20h29.3c1 0 1.8 0.8 1.8 1.8v5.1c0 0.9-0.8 1.7-1.8 1.7h-37.1c-1 0-1.8-0.8-1.8-1.7zm54.7 0c0-1 0.7-1.8 1.6-1.8h21.4c17.9 0 32.6 14.6 32.6 32.4 0 18-14.7 32.6-32.6 32.6h-21.4c-0.9 0-1.6-0.8-1.6-1.7zm21.7 54.4c13.6 0 23.6-10 23.6-23.8 0-13.6-10-23.6-23.6-23.6h-12.3v47.4zm66.5-12.6c-12.4 0-22.3-10-22.3-22.3 0-12.4 9.9-22.4 22.3-22.4 12.4 0 22.4 10 22.4 22.4 0 12.3-10 22.3-22.4 22.3zm17.5-22.3c0-9.7-7.9-17.5-17.5-17.5-9.7 0-17.5 7.8-17.5 17.5 0 9.7 7.8 17.5 17.5 17.5 9.6 0 17.5-7.8 17.5-17.5zm-25.9-10.3c0-0.6 0.5-1.1 1.2-1.1h9.7c3.8 0 7.6 2.8 7.6 7.7 0 4.1-2.5 5.9-4.4 6.9l2.9 6.4c0.3 0.9-0.2 1.7-1.1 1.7h-3.4c-0.5 0-0.9-0.4-1.1-0.8l-2.7-7h-3.2v6.6c0 0.7-0.5 1.2-1.2 1.2h-3.1c-0.7 0-1.2-0.5-1.2-1.2zm10.2 9.2c1.5 0 2.5-1.1 2.5-2.6 0-1.5-1-2.5-2.5-2.5h-4.9v5.1z"/></g></svg>