<svg xmlns="http://www.w3.org/2000/svg" xmlns:xlink="http://www.w3.org/1999/xlink" version="1.1" id="Layer_1" x="0px" y="0px" viewBox="0 0 1315.4 323.8" style="enable-background:new 0 0 1315.4 323.8;" xml:space="preserve" aria-label="Siteimprove">
<style type="text/css">
    .st0 {
        fill: #fff;
    }
</style>
<g>
                            <path class="st0" d="M169.4,137.5l-11.1-3.3c-5.1-1.5-9.1-2.9-12-4.2c-3-1.3-5.1-2.6-6.3-4.1c-1.2-1.4-1.9-3.2-1.9-5.3   c0-2.6,0.8-4.9,2.5-6.8s4-3.4,7-4.4s6.5-1.6,10.5-1.6c4.1,0,8.1,0.5,12.1,1.6c4,1,7.7,2.5,11.1,4.3c3.4,1.8,6.3,4,8.6,6.4   l14.8-21.9c-5.1-4.9-11.7-8.7-20-11.5s-17.3-4.2-27-4.2c-7,0-13.5,1-19.4,3s-11.1,4.7-15.5,8.3c-4.4,3.6-7.8,7.8-10.2,12.6   c-2.4,4.8-3.7,10.1-3.7,15.8c0,8.9,2.9,16.5,8.7,22.8c5.8,6.3,15.2,11.3,28.4,15l11,3.1c7.7,2.1,13,4.2,15.8,6.5s4.2,5,4.2,8.3   c0,4-2,7.1-5.9,9.2c-3.9,2.1-9,3.2-15.3,3.2c-4.4,0-9-0.6-13.7-1.7c-4.7-1.1-9.1-2.7-13.3-4.8c-4.1-2.1-7.5-4.5-10.2-7.4L104.4,199   c6.3,5.4,14.1,9.6,23.2,12.4s18.5,4.3,28.2,4.3c10.4,0,19.4-1.7,27-5.2s13.4-8.3,17.6-14.5c4.1-6.2,6.2-13.3,6.2-21.4   c0-9.3-2.9-16.8-8.8-22.6C191.9,146.2,182.5,141.4,169.4,137.5z"></path>
                            <path class="st0" d="M252.7,77.1c-3.5-3-7.7-4.5-12.6-4.5c-4.8,0-9,1.5-12.6,4.5s-5.3,7-5.3,12.1s1.8,9.2,5.3,12.2   c3.6,3,7.7,4.5,12.6,4.5c4.9,0,9.1-1.5,12.6-4.5c3.5-3,5.3-7.1,5.3-12.2S256.3,80.1,252.7,77.1z"></path>
                            <rect x="225.2" y="119.7" class="st0" width="29.9" height="93.1"></rect>
                            <path class="st0" d="M335.1,188.4c-1.9,0.5-3.7,0.7-5.6,0.7c-3.5,0-6.3-1-8.5-3s-3.3-5.5-3.3-10.5v-32.1h21.8v-23.7h-21.8V93.1   h-29.9v26.7h-18.1v23.7h18.1v37.3c0,11.6,3,20.3,8.9,26.1s14,8.7,24.4,8.7c4.5,0,8.8-0.6,12.8-1.7s7.5-2.5,10.3-4.1l-3.8-23.5   C338.7,187.3,337,188,335.1,188.4z"></path>
                            <path class="st0" d="M443,133.4c-4.2-5.1-9.4-9.2-15.8-12.1s-13.7-4.3-21.8-4.3c-7.4,0-14.2,1.2-20.4,3.6   c-6.2,2.4-11.5,5.8-16.1,10.2c-4.5,4.4-8.1,9.6-10.6,15.6s-3.8,12.6-3.8,19.8c0,9.9,2.2,18.6,6.5,26s10.3,13.1,18.1,17.3   c7.7,4.1,16.7,6.2,26.9,6.2c4.6,0,9.5-0.5,14.6-1.5s9.9-2.4,14.4-4.1c4.5-1.7,8.2-3.7,11.1-5.9l-9.4-20.3c-4.5,3-9.2,5.2-14.2,6.6   c-4.9,1.4-10.1,2.1-15.6,2.1c-4.9,0-9.3-0.8-13-2.3c-3.7-1.6-6.6-3.7-8.8-6.4c-2.1-2.7-3.2-5.9-3.3-9.6h69.9   c1.5-8.2,1.4-15.7-0.2-22.7C450,144.6,447.1,138.5,443,133.4z M383.7,154c0.5-4.7,2.6-8.4,6.4-11.2s8.6-4.2,14.4-4.2   c5.7,0,10.3,1.4,13.6,4.2c3.3,2.8,5.1,6.5,5.2,11.2H383.7z"></path>
                            <rect x="470.3" y="119.7" class="st0" width="29.9" height="93.1"></rect>
                            <path class="st0" d="M497.9,77.1c-3.5-3-7.7-4.5-12.6-4.5c-4.8,0-9,1.5-12.6,4.5s-5.3,7-5.3,12.1s1.8,9.2,5.3,12.2   c3.6,3,7.7,4.5,12.6,4.5s9.1-1.5,12.6-4.5s5.3-7.1,5.3-12.2C503.2,84.1,501.4,80.1,497.9,77.1z"></path>
                            <path class="st0" d="M666.8,122.1c-5.2-3.4-12.3-5.2-21.3-5.2c-6.9,0-13.5,1.4-19.6,4.1s-11,7-14.7,12.9   c-1.8-5.2-5.2-9.3-10.2-12.4s-10.9-4.6-17.7-4.6c-3.5,0-7,0.5-10.5,1.6s-6.7,2.6-9.8,4.7c-3,2.1-5.7,4.7-7.9,7.9v-11.5h-29.9v93.1   h29.9v-53.1c0-2.9,0.7-5.6,2.1-7.9c1.4-2.3,3.4-4.2,6-5.6c2.6-1.4,5.5-2.1,8.9-2.1c5.2,0,9.1,1.6,11.9,4.7   c2.8,3.1,4.2,7.3,4.2,12.6v51.5h29.9v-53.1c0-2.9,0.7-5.6,2.1-7.9c1.4-2.3,3.4-4.2,6-5.6c2.6-1.4,5.5-2.1,8.8-2.1   c5.2,0,9.2,1.6,12,4.7c2.7,3.1,4.1,7.3,4.1,12.6v51.5H681v-60.1c0-6.1-1.1-11.9-3.2-17.3C675.6,130,672,125.6,666.8,122.1z"></path>
                            <path class="st0" d="M786.7,123.1c-7-4.1-14.9-6.1-23.8-6.1c-7.1,0-13.4,1.2-18.8,3.7c-5.4,2.4-9.8,5.7-13.3,9.8v-10.7H705v131.5   h29.9v-45.7c3.7,3.2,7.8,5.7,12.4,7.5c4.6,1.8,9.6,2.6,15.1,2.6c6.9,0,13.2-1.2,18.9-3.7s10.6-6,14.8-10.5s7.4-9.7,9.7-15.7   s3.4-12.5,3.4-19.4c0-9.9-2-18.5-6-25.9C799.2,132.9,793.7,127.2,786.7,123.1z M777,178.8c-1.9,3.5-4.6,6.3-8,8.2   s-7.3,2.9-11.6,2.9s-8.2-1-11.6-2.9c-3.4-1.9-6-4.6-8-8.2c-1.9-3.5-2.9-7.7-2.9-12.5c0-4.9,1-9.1,2.9-12.6s4.6-6.2,8-8.1   c3.4-1.9,7.2-2.9,11.5-2.9s8.2,1,11.5,2.9s6.1,4.6,8,8.1c2,3.5,3,7.7,3,12.6C779.9,171.1,778.9,175.3,777,178.8z"></path>
                            <path class="st0" d="M882.8,116.8c-5.4,0-10.4,1.1-15.1,3.3c-4.6,2.2-8.3,5.7-11.1,10.5v-10.9h-29.9v93.1h29.9v-47.4   c0-6.3,1.8-11,5.5-14.3s8.4-4.9,14-4.9c2.3,0,4.6,0.2,6.9,0.7c2.3,0.5,4.5,1,6.6,1.8l3.6-30.8c-1.6-0.3-3.2-0.6-4.8-0.8   C886.7,116.9,884.9,116.8,882.8,116.8z"></path>
                            <path class="st0" d="M977.2,123.7c-7.8-4.5-16.8-6.7-26.9-6.7c-7.6,0-14.6,1.3-20.9,4c-6.3,2.6-11.8,6.3-16.4,10.9   c-4.6,4.6-8.2,9.9-10.7,15.8c-2.5,5.9-3.8,12.2-3.8,18.7c0,8.9,2.2,17.2,6.6,24.7c4.4,7.5,10.5,13.5,18.3,17.9   c7.8,4.5,16.8,6.7,26.9,6.7c7.6,0,14.6-1.3,20.9-4s11.8-6.3,16.4-10.9c4.6-4.6,8.2-9.8,10.7-15.7s3.7-12.2,3.7-18.7   c0-8.9-2.2-17.2-6.6-24.7C991.1,134.1,985,128.2,977.2,123.7z M969.8,178.8c-1.9,3.5-4.6,6.3-8,8.2s-7.2,2.9-11.5,2.9   s-8.1-1-11.5-2.9s-6.1-4.6-8.1-8.2c-2-3.5-3-7.7-3-12.5c0-4.9,1-9.1,2.9-12.6s4.6-6.2,8-8.1c3.4-1.9,7.3-2.9,11.6-2.9   s8.2,1,11.6,2.9c3.4,1.9,6.1,4.6,8,8.1s2.9,7.7,2.9,12.6C972.7,171.1,971.8,175.3,969.8,178.8z"></path>
                            <polygon class="st0" points="1058,181.4 1039.8,119.7 1007.7,119.7 1040.6,212.8 1075.4,212.8 1107.1,119.7 1075.7,119.7  "></polygon>
                            <path class="st0" d="M1209.8,151.5c-1.6-7-4.5-13-8.6-18.2c-4.2-5.1-9.5-9.2-15.8-12.1c-6.4-2.9-13.7-4.3-21.8-4.3   c-7.4,0-14.2,1.2-20.4,3.6c-6.2,2.4-11.5,5.8-16.1,10.2c-4.5,4.4-8.1,9.6-10.6,15.6s-3.8,12.6-3.8,19.8c0,9.9,2.2,18.6,6.5,26   s10.3,13.1,18.1,17.3c7.7,4.1,16.7,6.2,26.9,6.2c4.6,0,9.5-0.5,14.6-1.5s9.9-2.4,14.4-4.1c4.5-1.7,8.2-3.7,11.1-5.9l-9.4-20.3   c-4.5,3-9.2,5.2-14.2,6.6c-4.9,1.4-10.1,2.1-15.6,2.1c-4.9,0-9.3-0.8-13-2.3c-3.7-1.6-6.6-3.7-8.8-6.4c-2.1-2.7-3.2-5.9-3.3-9.6   h69.9C1211.5,166.1,1211.4,158.5,1209.8,151.5z M1141.9,154c0.5-4.7,2.6-8.4,6.4-11.2s8.6-4.2,14.4-4.2c5.7,0,10.3,1.4,13.6,4.2   c3.3,2.8,5.1,6.5,5.2,11.2H1141.9z"></path>
</g>
</svg>