<svg version="1.2" xmlns="http://www.w3.org/2000/svg" viewBox="0 0 1514 1547" width="1514" height="1547">
	<title>yara-logo-shield-only-svg</title>
	<style>
		.s0 { fill: #ffffff } 
		.s1 { fill: #00205b } 
	</style>
	<g id="Symbols">
		<g id="menu-icon-">
			<g id="logo-negative-copy">
				<path id="Shape" fill-rule="evenodd" class="s0" d="m0 105c0-58 47-105 105-105h1303.2c58 0 105 47 105 105v1336.9c0 58-47 105-105 105h-1303.2c-58 0-105-47-105-105zm37 1337.1c0 37.6 30.4 68 68 68h1306.4c37.5 0 68-30.4 68-68v-1337.5c0-37.5-30.5-68-68-68h-1306.4c-37.6 0-68 30.5-68 68z"/>
				<path id="Path" class="s1" d="m37 104.7c0-37.6 30.4-68 68-68h1306.4c37.5 0 68 30.4 68 68v1337.5c0 37.5-30.5 68-68 68h-1306.4c-37.6 0-68-30.5-68-68z"/>
				<g id="Group">
					<path id="Shape" fill-rule="evenodd" class="s0" d="m982.5 1366.6h-66.8l-46.2-91.2h-42v91.2h-59.6v-253.6h124.2c46.2 0 85.2 24.1 88.3 74.4q0 3.1 0 6.3c0 37.7-16.4 60.8-49.3 74.4zm-64.6-171.9c0-26.2-13.4-36.7-36-36.7h-58.5v74.4h58.5c24.7 0 38-12.5 36-37.7z"/>
					<path id="Path" class="s0" d="m450.7 1114h-66.7l-42.1 111.1-46.2-81.7c-9.3-14.7-30.8-28.3-49.3-28.3h-33.9l102.7 183.4-26.7 71.2h35.9c17.5 0 37-13.6 43.1-30.3z"/>
					<path id="Shape" fill-rule="evenodd" class="s0" d="m644.7 1301.6h-117l-13.4 36.7c-6.1 16.8-25.6 30.4-43.1 30.4h-30.8l93.4-253.6h72.9c16.5 0 37 13.6 43.1 30.4l83.2 223.2h-62.6l-25.7-68.1zm-50.3-140.5c-3.1-10.4-9.2-10.4-13.3 0l-36 95.4h84.2z"/>
					<path id="Shape" fill-rule="evenodd" class="s0" d="m1060.5 1367.7h-62.6l83.1-223.3c6.2-16.7 25.7-30.4 43.1-30.4h71.9l95.5 253.7h-30.8c-17.5 0-37-13.7-43.1-30.4l-13.4-36.7h-116zm43.1-110.1h84.2l-35.9-95.3c-3.1-10.5-9.3-10.5-13.4 0z"/>
				</g>
				<g id="Group">
					<path id="Path" class="s0" d="m969.1 641.4c3.1 2.1 10.3 2.1 17.5 2.1 26.7 0 79 0 109.8 0-55.4-50.3-89.3-175-89.3-249.4 0-76.6 33.9-200.2 89.3-249.5-29.7 0-82.1 0-109.8 0-6.2 0-14.4 0-17.5 2.1 0 0-98.5 95.4-98.5 247.4 0 151.9 98.5 247.3 98.5 247.3z"/>
					<path id="Path" class="s0" d="m732 641.4c3.1 2.1 10.2 2.1 17.4 2.1 26.7 0 79.1 0 108.9 0-55.5-50.3-89.4-175-89.4-249.4 0-76.6 36-200.2 89.4-249.5-29.8 0-82.2 0-108.9 0-6.1 0-14.3 0-17.4 2.1 0 0-98.6 97.5-98.6 247.4 2.1 149.8 98.6 247.3 98.6 247.3z"/>
					<path id="Path" class="s0" d="m496.9 641.4c3.1 2.1 10.2 2.1 16.4 2.1 27.7 0 80.1 0 109.9 0-55.5-50.3-89.4-175-89.4-249.4 0-76.6 33.9-200.2 89.4-249.5-29.8 0-82.2 0-109.9 0-6.2 0-14.4 0-16.4 2.1 0 0-98.6 95.4-98.6 247.4 0 151.9 98.6 247.3 98.6 247.3z"/>
					<path id="Shape" fill-rule="evenodd" class="s0" d="m1274 972.6c-18.4 32.4-43.1 61.8-126.2 59.7h-770c-83.2 0-106.8-28.3-126.3-59.7-34.9-54.5-12.3-109-2-132.1 16.4-35.6 46.2-94.3 50.3-114.2 0 0 17.4-46.1-29.8-53.5-20.5-2.1-31.8-16.7-33.9-36.7v-23c0-3.2 3.1-6.3 6.2-6.3h80.1c2 0 55.4 6.3 55.4 73.4 2 114.2 0 129.9 29.8 134.1 3 0 6.1-1 6.1-4.2 0-1 0-1 0-3.1 0-61.9 48.3-110.1 107.8-110.1 29.8 0 56.5 13.6 76 33.6 0 1 2 3.1 4.1 3.1 1 0 4.1-1 4.1-3.1 17.5-20 46.2-33.6 76-33.6 29.7 0 56.4 13.6 75.9 33.6 0 1 2.1 3.1 4.1 3.1 1.1 0 4.2-1 4.2-3.1 17.4-20 46.2-33.6 75.9-33.6 29.8 0 56.5 13.6 76 33.6 0 1 2 3.1 4.1 3.1 1 0 4.1-1 4.1-3.1 17.5-20 46.2-33.6 76-33.6 60.5 0 107.8 49.3 107.8 110.1 0 1 0 1 0 3.1 0 1.1 1 4.2 4.1 4.2 29.8-6.3 27.7-19.9 29.8-134.1 0-67.1 53.3-73.4 55.4-73.4h77c3.1 0 6.1 3.1 6.1 6.3v23c-1 18.9-14.3 33.6-33.8 36.7-47.3 8.4-29.8 53.5-29.8 53.5 4.1 19.9 33.9 79.6 50.3 114.2 11.3 22 31.8 78.6 5.1 132.1zm-697-166.7c0-35.9-28.5-65-63.7-65-35.2 0-63.6 29.1-63.6 65 0 36 28.4 65 63.6 65 35.2 0 63.7-29 63.7-65zm162.2 0c0-35.9-28.5-65-63.7-65-35.2 0-63.6 29.1-63.6 65 0 36 28.4 65 63.6 65 35.2 0 63.7-29 63.7-65zm162.2 0c0-35.9-28.5-65-63.7-65-35.2 0-63.6 29.1-63.6 65 0 36 28.4 65 63.6 65 35.2 0 63.7-29 63.7-65zm163.2 0c0-35.9-28.4-65-63.6-65-35.2 0-63.7 29.1-63.7 65 0 36 28.5 65 63.7 65 35.2 0 63.6-29 63.6-65z"/>
				</g>
			</g>
		</g>
	</g>
</svg>